<?xml version="1.0" encoding="UTF-8"?> <svg xmlns="http://www.w3.org/2000/svg" width="161" height="35" viewBox="0 0 161 35" fill="none"> <rect x="6" y="2" width="151" height="33" fill="white"></rect> <path d="M22.5867 12.0451C20.955 10.67 18.8099 10.5967 16.7382 10.5967H13.3831V24.3105H16.6465C18.0582 24.3105 20.7533 24.2372 22.4217 22.8621C23.7234 21.8171 24.6035 19.8187 24.6035 17.4169C24.6218 15.1985 23.9068 13.2001 22.5867 12.0451Z" fill="black"></path> <path d="M50.4898 9.86328C49.0414 9.86328 47.153 10.12 45.6679 11.605C44.6229 12.6501 43.5962 14.5385 43.5962 17.4902C43.5962 20.442 44.6412 22.3488 45.6679 23.3755C47.153 24.8605 49.0414 25.1172 50.4898 25.1172C51.9382 25.1172 53.8266 24.8605 55.3116 23.3755C56.3567 22.3304 57.3834 20.442 57.3834 17.4902C57.3834 14.5385 56.3567 12.6501 55.3116 11.605C53.8266 10.12 51.9382 9.86328 50.4898 9.86328Z" fill="black"></path> <path d="M84.372 14.2458C84.7754 13.9891 85.3805 13.5123 85.3805 12.2105C85.3805 11.6604 85.3072 10.8353 84.4454 10.2852C84.1153 10.1019 83.4736 9.88184 82.0434 9.88184H76.2676V14.7042H81.7867C82.3001 14.6858 83.822 14.6125 84.372 14.2458Z" fill="black"></path> <path d="M85.1984 20.1681C84.465 19.7647 83.0898 19.6914 82.3747 19.6914H76.2505V25.1372H82.558C83.4015 25.1372 84.5933 25.0271 85.3084 24.5871C85.7118 24.3304 86.3902 23.6886 86.3902 22.4051C86.3719 21.47 86.0785 20.6449 85.1984 20.1681Z" fill="black"></path> <path d="M114.037 10.6888C113.194 10.212 112.222 10.2487 111.213 10.2487H105.218V16.6663H111.305C112.314 16.6663 113.56 16.4829 114.202 16.0428C115.101 15.3644 115.284 14.3559 115.284 12.9991C115.266 12.0456 114.972 11.2388 114.037 10.6888Z" fill="black"></path> <path d="M140.363 9.86328C138.915 9.86328 137.026 10.12 135.541 11.605C134.496 12.6501 133.469 14.5385 133.469 17.4902C133.469 20.442 134.515 22.3488 135.541 23.3755C137.026 24.8605 138.915 25.1172 140.363 25.1172C141.811 25.1172 143.7 24.8605 145.185 23.3755C146.23 22.3304 147.257 20.442 147.257 17.4902C147.257 14.5385 146.212 12.6317 145.185 11.605C143.7 10.12 141.811 9.86328 140.363 9.86328Z" fill="black"></path> <path d="M0.621094 0V34.9997H160.292V0H0.621094ZM29.9189 26.8777C26.3621 30.2145 21.2835 30.4712 17.9467 30.4712H5.16793V4.5285H18.1484C22.0719 4.5285 26.4537 4.74851 29.9372 8.12197C32.889 10.9821 33.439 14.7222 33.439 17.3807C33.439 22.3858 31.4773 25.4293 29.9189 26.8777ZM62.5718 27.0977C59.015 30.6545 53.8998 31.2045 50.4896 31.2045C47.0795 31.2045 41.9643 30.6545 38.4075 27.0977C36.7391 25.4293 34.7774 22.3858 34.7774 17.4907C34.7774 12.5955 36.7391 9.55203 38.4075 7.88363C41.9643 4.32683 47.0795 3.77681 50.5263 3.77681C53.9364 3.77681 59.015 4.32683 62.5718 7.88363C64.2402 9.55203 66.2019 12.5955 66.2019 17.4907C66.2019 22.3858 64.2402 25.4293 62.5718 27.0977ZM93.4096 28.0694C91.4479 30.2511 87.7077 30.4712 84.4076 30.4712H68.0353V4.5285H84.1142C86.791 4.5285 89.0828 4.56517 90.8612 5.61021C92.1629 6.38024 93.6479 7.8653 93.6479 10.9454C93.6479 12.5771 93.1346 14.0255 92.2729 14.9422C90.9712 16.354 88.9361 16.6473 88.7528 16.6473V16.794C90.3478 16.904 92.1262 17.5273 93.2813 18.609C94.7663 19.9474 95.0597 21.6892 95.0597 23.1375C95.0413 25.0259 94.4913 26.8777 93.4096 28.0694ZM115.887 30.4712L110.112 21.9275H105.217V30.4712H96.9847V4.5285H113.815C116.034 4.5285 118.637 4.60184 120.819 6.23357C123.001 7.93863 123.404 10.1937 123.404 11.9721C123.404 14.4839 122.561 17.4907 119.866 19.3607C119.591 19.5441 119.041 19.8558 118.326 20.2041L125.274 30.4895H115.887V30.4712ZM152.445 27.0977C148.888 30.6545 143.773 31.2045 140.363 31.2045C136.953 31.2045 131.838 30.6545 128.281 27.0977C126.613 25.4293 124.651 22.3858 124.651 17.4907C124.651 12.5955 126.613 9.55203 128.281 7.88363C131.838 4.32683 136.953 3.77681 140.4 3.77681C143.81 3.77681 148.888 4.32683 152.445 7.88363C154.114 9.55203 156.075 12.5955 156.075 17.4907C156.075 22.3858 154.114 25.4293 152.445 27.0977Z" fill="black"></path> </svg> 